<?xml version="1.0" encoding="UTF-8"?>
<!-- Generator: Adobe Illustrator 16.0.0, SVG Export Plug-In . SVG Version: 6.00 Build 0)  -->
<!DOCTYPE svg PUBLIC "-//W3C//DTD SVG 1.1//EN" "http://www.w3.org/Graphics/SVG/1.1/DTD/svg11.dtd">
<svg version="1.1" id="Слой_1" xmlns="http://www.w3.org/2000/svg" xmlns:xlink="http://www.w3.org/1999/xlink" x="0px" y="0px" width="841.889px" height="595.281px" viewBox="0 0 841.889 595.281" enable-background="new 0 0 841.889 595.281" xml:space="preserve">
<g>
	<g>
		<circle fill="#F5F5F5" cx="481.663" cy="260.729" r="35.121"/>
		
			<rect x="411.032" y="30.461" transform="matrix(-0.7071 0.7071 -0.7071 -0.7071 922.3237 194.1861)" fill="#F5F5F5" width="19.825" height="515.303"/>
		<path fill="#F5F5F5" d="M316.175,133.34h209.539c27.573,0,50.003,22.43,50.003,50.003v129.904l-62.59,42.933l68.429,68.429    c5.353-9.372,8.448-20.183,8.448-31.727V183.343c0-35.45-28.84-64.29-64.29-64.29H316.175c-11.538,0-22.354,3.096-31.726,8.443    l10.591,10.592C301.47,135.073,308.617,133.34,316.175,133.34z"/>
		<path fill="#F5F5F5" d="M472.977,383.715l-99.654-95.603l-107.15,85.944V183.343c0-7.558,1.733-14.705,4.753-21.135    l-10.592-10.591c-5.353,9.372-8.448,20.187-8.448,31.726v209.539c0,35.45,28.84,64.29,64.29,64.29h209.539    c11.544,0,22.354-3.095,31.726-8.443L484.516,375.8L472.977,383.715z"/>
	</g>
</g>
</svg>